<?xml version="1.0" encoding="UTF-8" standalone="no"?>
<!-- Created with Inkscape (http://www.inkscape.org/) -->

<svg
   version="1.1"
   id="svg965"
   width="365.84729mm"
   height="282.72293mm"
   viewBox="0 0 1382.7298 1068.5592"
   sodipodi:docname="Mifare_logo_rgb.svg"
   inkscape:version="1.1.2 (0a00cf5339, 2022-02-04)"
   xmlns:inkscape="http://www.inkscape.org/namespaces/inkscape"
   xmlns:sodipodi="http://sodipodi.sourceforge.net/DTD/sodipodi-0.dtd"
   xmlns="http://www.w3.org/2000/svg"
   xmlns:svg="http://www.w3.org/2000/svg">
  <defs
     id="defs969" />
  <sodipodi:namedview
     id="namedview967"
     pagecolor="#ffffff"
     bordercolor="#666666"
     borderopacity="1.0"
     inkscape:pageshadow="2"
     inkscape:pageopacity="0.0"
     inkscape:pagecheckerboard="0"
     showgrid="false"
     units="mm"
     inkscape:zoom="0.25"
     inkscape:rotation="-1"
     inkscape:cx="621.63161"
     inkscape:cy="484.92282"
     inkscape:window-width="1680"
     inkscape:window-height="986"
     inkscape:window-x="0"
     inkscape:window-y="0"
     inkscape:window-maximized="1"
     inkscape:current-layer="g971"
     inkscape:snap-smooth-nodes="false"
     inkscape:snap-intersection-paths="false"
     inkscape:object-nodes="false"
     inkscape:object-paths="false"
     inkscape:snap-midpoints="true"
     inkscape:document-units="in"
     lock-margins="true"
     fit-margin-top="50"
     fit-margin-left="50"
     fit-margin-right="50"
     fit-margin-bottom="50" />
  <g
     inkscape:groupmode="layer"
     inkscape:label="Image"
     id="g971"
     style="display:inline"
     transform="translate(189.51968,187.3016)">
    <ellipse
       style="display:inline;fill:#7ab0df;fill-opacity:1;stroke:none;stroke-width:0.126058;stroke-miterlimit:4;stroke-dasharray:none;stroke-opacity:1"
       id="path1885"
       cx="501.98486"
       cy="346.97794"
       ry="345.30316"
       rx="343.45776" />
    <ellipse
       style="display:inline;fill:#fab301;fill-opacity:1;stroke:none;stroke-width:0.126273;stroke-miterlimit:4;stroke-dasharray:none;stroke-opacity:1"
       id="path1460"
       cx="199.95316"
       cy="346.31339"
       rx="200.49646"
       ry="201.68344" />
    <path
       style="display:inline;fill:#96843a;fill-opacity:1;stroke:none;stroke-width:0.126058;stroke-linecap:butt;stroke-linejoin:miter;stroke-miterlimit:4;stroke-dasharray:none;stroke-opacity:1"
       d="m 222.7146,145.89282 c -34.67603,43.29726 -62.75608,121.62824 -64.1875,187.83633 -1.60165,74.08261 15.55068,142.04465 62.66979,213.13238 117.32949,-15.4005 179.07822,-110.5606 179.25274,-200.54814 0.17379,-89.61519 -62.72249,-186.2229 -177.73503,-200.42057 z"
       id="path65864"
       sodipodi:nodetypes="cacac" />
    <path
       style="display:inline;fill:#ffffff;stroke:none;stroke-width:0.126058;stroke-linecap:butt;stroke-linejoin:miter;stroke-miterlimit:4;stroke-dasharray:none;stroke-opacity:1"
       d="m 372.03157,468.31615 5.93866,-9.00707 c 37.96543,35.12184 58.08324,44.05364 92.49106,52.01599 26.35885,6.09972 51.02614,2.10396 80.99836,-4.70747 l 7.29221,8.23631 c -30.84688,8.41054 -60.13835,13.84535 -89.37889,7.56049 -36.23606,-7.78845 -67.56769,-25.91112 -97.3414,-54.09825 z"
       id="path121504"
       sodipodi:nodetypes="ccaccac" />
    <path
       style="display:inline;fill:#ffffff;stroke:none;stroke-width:0.126058;stroke-linecap:butt;stroke-linejoin:miter;stroke-miterlimit:4;stroke-dasharray:none;stroke-opacity:1"
       d="m 292.25129,154.56194 -9.63184,-4.67389 c 75.52733,-81.472234 142.79901,-94.410933 224.24862,-98.682113 55.0064,-2.884511 136.11031,30.249449 157.48529,50.444103 l -11.07238,5.62985 C 617.06423,84.15159 557.80973,59.083621 506.79202,61.824218 429.09284,65.998105 363.81638,79.581658 292.25129,154.56194 Z"
       id="path1297"
       sodipodi:nodetypes="ccaccac" />
    <path
       style="display:inline;fill:#ffffff;stroke:none;stroke-width:0.126058;stroke-linecap:butt;stroke-linejoin:miter;stroke-miterlimit:4;stroke-dasharray:none;stroke-opacity:1"
       d="m 331.43154,182.31646 c 56.29769,-54.64626 94.08108,-65.543 148.71617,-72.85137 41.85675,-5.59904 74.06817,4.26921 124.42749,23.92769 l -8.58122,7.35958 c -42.50989,-18.61477 -76.95054,-25.54098 -115.71561,-20.09359 -51.4017,7.22314 -91.76388,19.39955 -140.36214,67.92923 z"
       id="path4771"
       sodipodi:nodetypes="caccacc" />
    <path
       style="display:inline;fill:#ffffff;stroke:none;stroke-width:0.126058;stroke-linecap:butt;stroke-linejoin:miter;stroke-miterlimit:4;stroke-dasharray:none;stroke-opacity:1"
       d="m 377.51399,231.89308 c -5.57428,-8.04764 -5.57428,-8.04764 -5.57428,-8.04764 24.07022,-25.93446 55.38904,-44.9189 88.84709,-53.10379 32.00053,-7.82834 66.99528,-4.60954 98.61505,5.87811 l -6.87117,8.18697 c -26.56691,-8.08765 -59.00512,-10.95891 -87.30815,-3.99906 -32.80268,8.06631 -42.03123,12.55019 -87.70854,51.08541 z"
       id="path8359"
       sodipodi:nodetypes="ccaccac" />
    <path
       style="display:inline;fill:#ffffff;stroke:none;stroke-width:0.126058;stroke-linecap:butt;stroke-linejoin:miter;stroke-miterlimit:4;stroke-dasharray:none;stroke-opacity:1"
       d="m 340.55996,502.43755 c 28.93906,33.08096 77.04438,57.66241 122.63899,66.02495 43.64898,8.0057 86.71421,2.74107 131.96327,-17.47054 l 9.3948,6.49402 c -41.77665,23.51323 -92.76263,30.17707 -139.15138,22.65601 -49.22075,-7.98021 -96.94087,-31.11726 -132.72712,-69.49642 7.88144,-8.20802 0,0 7.88144,-8.20802 z"
       id="path9223"
       sodipodi:nodetypes="caccacc" />
    <path
       style="display:inline;fill:#ffffff;stroke:none;stroke-width:0.126058;stroke-linecap:butt;stroke-linejoin:miter;stroke-miterlimit:4;stroke-dasharray:none;stroke-opacity:1"
       d="m 283.30849,541.17523 9.99545,-5.35924 c 61.29174,66.08723 116.42241,84.86782 184.77,92.51444 59.93431,6.70536 111.9984,-6.30856 175.72514,-43.33932 l 10.30686,5.13085 c -58.21599,39.00206 -122.87684,56.65667 -186.99825,49.85505 -71.99187,-7.63645 -148.00926,-43.06448 -193.7992,-98.80178 z"
       id="path11081"
       sodipodi:nodetypes="ccaccac" />
    <ellipse
       style="display:inline;fill:#c7d401;fill-opacity:1;stroke:none;stroke-width:0.097538;stroke-miterlimit:4;stroke-dasharray:none;stroke-opacity:1"
       id="path2118"
       cx="756.30548"
       cy="346.43079"
       rx="247.9283"
       ry="249.60622" />
    <path
       style="display:inline;fill:#729a39;fill-opacity:1;stroke:none;stroke-width:0.126058;stroke-linecap:butt;stroke-linejoin:miter;stroke-miterlimit:4;stroke-dasharray:none;stroke-opacity:1"
       d="m 739.34962,97.40797 c 48.87654,39.96986 110.92744,158.63968 110.97315,249.9103 0.0453,90.61043 -60.07816,210.31234 -109.92188,248.21469 C 658.95251,587.55654 613.72928,558.9226 571.40296,512.2909 531.75848,468.61382 508.69932,408.27504 508.37715,346.43077 c -0.25948,-58.38288 20.52526,-117.58003 57.86843,-160.11602 42.92003,-48.88836 92.5716,-81.84979 173.10404,-88.90678 z"
       id="path135495"
       sodipodi:nodetypes="cacacac" />
    <g
       id="g1346"
       style="display:inline"
       transform="matrix(1.2554423,0,0,1.2657346,0.13878293,-0.44504543)">
      <path
         style="display:inline;fill:#ffffff;fill-opacity:1;stroke:none;stroke-width:0.1;stroke-linecap:butt;stroke-linejoin:miter;stroke-miterlimit:4;stroke-dasharray:none;stroke-opacity:1"
         d="m 231.18777,204.06113 0.52419,139.08769 34.41155,-0.28081 -0.21842,-138.74655 z"
         id="path32338" />
      <path
         style="fill:#ffffff;fill-opacity:1;stroke:none;stroke-width:0.1;stroke-linecap:butt;stroke-linejoin:miter;stroke-miterlimit:4;stroke-dasharray:none;stroke-opacity:1"
         d="m 522.80386,343.04309 -0.27393,-138.99566 63.53725,0.20445 c 36.15923,2.10442 42.29472,22.90685 43.7805,43.40249 1.12672,15.54258 -10.82464,35.09559 -28.10616,37.35794 l 34.47872,58.20387 -39.65108,-0.0133 -28.4528,-54.60767 -11.89449,0.1561 0.0866,54.33656 z"
         id="path16504"
         sodipodi:nodetypes="cccaccccccc" />
      <path
         style="fill:#ffffff;fill-opacity:1;stroke:none;stroke-width:1px;stroke-linecap:butt;stroke-linejoin:miter;stroke-opacity:1"
         d="m 56.407678,342.93157 -0.116873,-138.86313 47.890175,-0.13315 30.44207,85.16875 29.92886,-85.15936 48.6729,0.0884 0.59803,139.56508 -34.73618,-0.41248 -0.0762,-94.88516 -32.33721,94.66748 -25.59578,0.12149 -31.39846,-94.33738 0.346917,94.39715 z"
         id="path890" />
      <path
         style="fill:#729a39;fill-opacity:1;stroke:none;stroke-width:0.1;stroke-linecap:butt;stroke-linejoin:miter;stroke-miterlimit:4;stroke-dasharray:none;stroke-opacity:1"
         d="m 556.02904,233.08538 24.52973,0.39714 c 8.95089,-0.42742 14.67063,5.7574 15.05584,12.20676 0.36744,6.15178 -4.09605,13.06701 -12.87307,13.27021 l -26.44333,0.89723 z"
         id="path17564"
         sodipodi:nodetypes="ccaccc" />
      <path
         style="fill:#ffffff;fill-opacity:1;stroke:none;stroke-width:1px;stroke-linecap:butt;stroke-linejoin:miter;stroke-opacity:1"
         d="m 285.32974,343.52191 -0.0612,-139.45583 94.21319,0.0681 0.0338,31.22073 -60.97941,-0.13458 -0.11099,23.46114 56.27776,0.27652 0.34198,31.00231 -57.01761,0.23166 0.41405,52.88151 z"
         id="path991" />
      <path
         style="fill:#ffffff;fill-opacity:1;stroke:none;stroke-width:1px;stroke-linecap:butt;stroke-linejoin:miter;stroke-opacity:1"
         d="m 367.26097,342.77896 59.62242,-138.75724 27.61954,-0.11419 60.2961,139.57416 -38.40902,-0.3266 -10.28273,-28.36717 -50.75979,-0.17503 -11.5725,28.60532 z"
         id="path1092" />
      <path
         style="fill:#729a39;fill-opacity:1;stroke:none;stroke-width:0.1;stroke-linecap:butt;stroke-linejoin:miter;stroke-miterlimit:4;stroke-dasharray:none;stroke-opacity:1"
         d="m 426.21216,284.99523 26.89195,-0.10167 -13.07574,-34.77894 z"
         id="path16146"
         sodipodi:nodetypes="cccc" />
      <path
         style="fill:#ffffff;fill-opacity:1;stroke:none;stroke-width:1px;stroke-linecap:butt;stroke-linejoin:miter;stroke-opacity:1"
         d="m 643.31796,343.00493 -0.58985,-138.92806 95.62584,0.32949 -0.11512,30.59824 -62.44746,0.29097 0.51679,21.23754 58.96031,0.54153 0.55263,30.87725 -58.95842,0.0735 0.0778,23.71397 65.53254,0.43425 -0.21615,30.74399 z"
         id="path1853" />
    </g>
  </g>
</svg>
